<svg width="153" height="35" viewBox="0 0 153 35" fill="none" xmlns="http://www.w3.org/2000/svg">
<path d="M0.648438 0.000369118V5.65545H2.57561V15.012H1.51856V19.1142H2.58001V23.1206H5.0423C6.22104 23.1206 7.1784 24.082 7.1784 25.2564C7.1784 26.4351 6.22141 27.3925 5.0423 27.3925H1.95363V30.4375H5.0423C7.90045 30.4375 10.2235 28.1145 10.2235 25.2564C10.2235 22.5983 8.20943 20.3974 5.62544 20.11V19.1138H6.71293V15.0117H5.62106V5.65508H38.7349V9.7682V16.204L44.39 19.8505V9.7682V5.65508H45.4903V0H0.648438V0.000369118Z" fill="#EB5849"/>
<path d="M22.3828 21.2422H19.2637V24.3613H22.3828V21.2422Z" fill="#EB5849"/>
<path d="M27.8418 21.2422H24.7227V24.3613H27.8418V21.2422Z" fill="#EB5849"/>
<path d="M22.3828 26.1016H19.2637V29.2207H22.3828V26.1016Z" fill="#EB5849"/>
<path d="M27.8418 26.1016H24.7227V29.2207H27.8418V26.1016Z" fill="#EB5849"/>
<path d="M8.45312 17.9953V19.2286C9.84335 20.0141 10.9213 21.2657 11.4978 22.7611L23.3787 15.1001L38.7352 25.0024V34.9982H44.3903V21.92L23.3787 8.37109L8.45312 17.9953Z" fill="#EB5849"/>
<path d="M65.5996 17.9375H61.5059V23.8438H65.2871C67.5267 23.8438 68.6465 22.9062 68.6465 21.0312C68.6465 18.9688 67.6309 17.9375 65.5996 17.9375ZM61.5059 9.6875V15.1094H64.459C65.5736 15.1094 66.4225 14.8854 67.0059 14.4375C67.5892 13.9792 67.8809 13.2969 67.8809 12.3906C67.8809 11.4844 67.5892 10.8073 67.0059 10.3594C66.4225 9.91146 65.5267 9.6875 64.3184 9.6875H61.5059ZM65.2871 27H57.3965V6.53125H64.3184C66.7767 6.53125 68.6673 7.00521 69.9902 7.95312C71.3236 8.89062 71.9902 10.2865 71.9902 12.1406C71.9902 13.099 71.735 13.9479 71.2246 14.6875C70.7246 15.4271 70.0007 15.9844 69.0527 16.3594C70.2507 16.6198 71.1621 17.1719 71.7871 18.0156C72.4121 18.849 72.7246 19.8542 72.7246 21.0312C72.7246 22.9896 72.084 24.474 70.8027 25.4844C69.5319 26.4948 67.6934 27 65.2871 27ZM79.6621 27H75.5684V11.7812H79.3809L79.5527 14.0312C80.334 12.3438 81.4538 11.5 82.9121 11.5C83.2663 11.5 83.6309 11.5573 84.0059 11.6719L83.5684 15.3125L82.0684 15.2656C80.9121 15.2656 80.11 15.75 79.6621 16.7188V27ZM89.9746 11.7812V27H85.8652V11.7812H89.9746ZM89.9746 5.0625V8.14062H85.8652V5.0625H89.9746ZM96.7559 19.2344V19.6719C96.7559 22.6823 97.7454 24.1875 99.7246 24.1875C100.464 24.1875 101.053 23.974 101.49 23.5469C101.928 23.1198 102.146 22.5521 102.146 21.8438H105.881L105.912 21.9219C105.954 23.4635 105.381 24.7552 104.193 25.7969C103.006 26.8281 101.516 27.3438 99.7246 27.3438C97.4954 27.3438 95.7559 26.6458 94.5059 25.25C93.2663 23.8438 92.6465 21.9844 92.6465 19.6719V19.25C92.6465 16.9375 93.2663 15.0781 94.5059 13.6719C95.7559 12.2552 97.4954 11.5469 99.7246 11.5469C101.61 11.5469 103.12 12.0833 104.256 13.1562C105.402 14.2188 105.954 15.625 105.912 17.375L105.896 17.4531H102.146C102.146 16.651 101.928 15.9948 101.49 15.4844C101.053 14.9635 100.464 14.7031 99.7246 14.7031C97.7454 14.7031 96.7559 16.2135 96.7559 19.2344ZM112.365 20.625V27H108.256V5.0625H112.365V17.5H113.365L116.896 11.7812H121.662L116.787 18.6719L122.396 27H117.693L113.49 20.625H112.365ZM128.006 5.0625V27H123.896V5.0625H128.006ZM135.693 11.7812V27H131.584V11.7812H135.693ZM135.693 5.0625V8.14062H131.584V5.0625H135.693ZM142.506 11.7812L144.787 16.625H144.881L147.209 11.7812H151.85L147.271 19.3125L152.006 27H147.381L144.881 21.9531L142.396 27H137.756L142.49 19.3125L137.896 11.7812H142.506Z" fill="#0F1B24"/>
</svg>
